<svg id="Layer_1" xmlns="http://www.w3.org/2000/svg" viewBox="0 0 345.9 345.9"><style>.st0{fill:url(#SVGID_1_);}</style><linearGradient id="SVGID_1_" gradientUnits="userSpaceOnUse" x1="172.929" y1="251.45" x2="172.929" y2="94.407"><stop offset="0" stop-color="#FFE01E"/><stop offset=".137" stop-color="#CADD32"/><stop offset=".31" stop-color="#8FD848"/><stop offset=".477" stop-color="#5ED55B"/><stop offset=".634" stop-color="#37D269"/><stop offset=".778" stop-color="#1CD073"/><stop offset=".904" stop-color="#0BCF7A"/><stop offset="1" stop-color="#05CE7C"/></linearGradient><path class="st0" d="M61.4 165.4l104.2-69c4-2.7 10.6-2.7 14.6 0l104.2 69c6.2 4.1 6.2 10.9 0 15l-13.9 9.2c-20.5-32.3-56.6-53.8-97.6-53.8-41 0-77.1 21.5-97.6 53.8l-13.9-9.2c-6.2-4.1-6.2-10.8 0-15zm111.5-.6c-31 0-58.2 16.3-73.6 40.8l24.1 15.9c10.1-16.7 28.5-27.9 49.5-27.9s39.3 11.2 49.5 27.9l24.1-15.9c-15.4-24.5-42.6-40.8-73.6-40.8zm0 57.6c-10.9 0-20.5 6.1-25.4 15.1l16 10.6c2.6 2.1 5.8 3.3 9.4 3.3 3.6 0 6.8-1.3 9.4-3.3l16-10.6c-4.9-9-14.4-15.1-25.4-15.1z"/></svg>